<svg xmlns="http://www.w3.org/2000/svg" version="1.1" xmlns:xlink="http://www.w3.org/1999/xlink" xmlns:svgjs="http://svgjs.dev/svgjs" width="1440" height="560" preserveAspectRatio="none" viewBox="0 0 1440 560"><g mask="url(&quot;#SvgjsMask1015&quot;)" fill="none"><rect width="1440" height="560" x="0" y="0" fill="rgba(235, 235, 235, 1)"></rect><path d="M317.06 608.32C501.48 597.13 619.58 263.01 966.21 255.06 1312.83 247.11 1449.62 121.36 1615.35 120.66" stroke="rgba(51,121,194,0.58)" stroke-width="2"></path><path d="M442.82 585.9C582.89 557.75 638.13 203.22 862.42 197.95 1086.72 192.68 1072.22 267.95 1282.03 267.95 1491.83 267.95 1595.28 198.19 1701.63 197.95" stroke="rgba(51,121,194,0.58)" stroke-width="2"></path><path d="M867.83 584.73C936.17 580.69 908.43 463.78 1108.91 454.87 1309.39 445.96 1458.83 241.48 1591.06 236.47" stroke="rgba(51,121,194,0.58)" stroke-width="2"></path><path d="M560.5 590.13C718.09 583.95 844.7 327.3 1133.86 326.98 1423.01 326.66 1561.16 438.46 1707.21 438.98" stroke="rgba(51,121,194,0.58)" stroke-width="2"></path><path d="M749.31 636.5C881.89 610.64 946.68 273 1148.77 272.64 1350.85 272.28 1431.97 504.37 1548.22 513.44" stroke="rgba(51,121,194,0.58)" stroke-width="2"></path></g><defs><mask id="SvgjsMask1015"><rect width="1440" height="560" fill="#ffffff"></rect></mask></defs></svg>